<svg width="25" height="20" viewBox="0 0 25 20" fill="none" xmlns="http://www.w3.org/2000/svg">
<path d="M24.9756 2.30655C24.0923 2.69797 23.1444 2.96342 22.1486 3.08193C23.1654 2.47302 23.9438 1.50722 24.3127 0.359922C23.3589 0.923805 22.3061 1.33326 21.1842 1.55522C20.2859 0.596903 19.0082 0 17.5909 0C14.8719 0 12.6673 2.20459 12.6673 4.92209C12.6673 5.3075 12.7108 5.68393 12.7948 6.04389C8.7036 5.8384 5.07579 3.87828 2.64775 0.899805C2.22331 1.62569 1.98186 2.47149 1.98186 3.37436C1.98186 5.08256 2.85171 6.58978 4.17147 7.47158C3.36461 7.4446 2.60575 7.22264 1.94139 6.8537V6.91519C1.94139 9.29974 3.63908 11.2899 5.89014 11.7428C5.47771 11.8538 5.04281 11.9153 4.59289 11.9153C4.27496 11.9153 3.96751 11.8838 3.66606 11.8238C4.29292 13.7809 6.11061 15.2041 8.26422 15.2432C6.58003 16.5629 4.45641 17.3473 2.14986 17.3473C1.75245 17.3473 1.361 17.3233 0.975586 17.2798C3.15469 18.6791 5.74171 19.4949 8.52219 19.4949C17.579 19.4949 22.5296 11.9933 22.5296 5.4875L22.5131 4.85013C23.4804 4.1602 24.3172 3.29338 24.9756 2.30655Z" fill="white" fill-opacity="0.7"/>
</svg>
